<svg xmlns="http://www.w3.org/2000/svg" width="1024" height="1024" viewBox="0 0 1024 1024"><path d="m456.36 165.07-.53.53h-2.09l-.52.52h-1.04l-.53.52h-1.04l-.52.52h-1.05l-.52.53h-1.05l-.52.52h-1.04l-.53.52h-1.56l-.53.52h-1.04l-.52.53h-1.05l-.52.52h-1.05l-.52.52h-1.04l-.53.52h-1.56l-.53.53h-1.04l-.52.52h-1.05l-.52.52h-1.05l-.52.52h-1.04l-.53.53h-1.04l-.52.52h-1.57l-.52.52h-1.05l-.52.52h-1.05l-.52.53h-1.04l-.53.52h-1.04l-.52.52h-1.05l-.52.52h-1.57l-.52.53h-1.04l-.53.52h-1.04l-.52.52h-1.05l-.52.52h-1.05l-.52.53h-1.04l-.53.52h-1.56l-.53.52h-1.04l-.52.52h-1.05l-.52.53h-1.05l-.52.52h-1.04l-.53.52h-1.56l-.53.52h-1.04l-.52.53h-1.05l-.52.52h-1.05l-.52.52h-1.04l-.53.52h-1.04l-.52.53h-1.57l-.52.52h-1.05l-.52.52h-1.05l-.52.52h-1.04l-.53.53h-1.04l-.52.52h-1.05l-.52.52h-1.57l-.52.52h-1.05l-.52.53h-1.04l-.53.52h-1.04l-.52.52h-1.05l-.52.52h-1.57l-.52.53h-1.05l-.52.52h-1.04l-.53.52h-1.04l-.52.52h-1.05l-.52.53h-1.05l-.52.52h-1.57l-.52.52h-1.04l-.52.52h-1.05l-.52.53h-1.05l-.52.52h-1.04l-.53.52h-1.04l-.52.52h-1.57l-.52.53h-1.05l-.52.52h-1.05l-.52.52h-1.04l-.53.52h-1.04l-.52.53h-1.05l-.52.52h-1.57l-.52.52h-1.05l-.52.52h-1.04l-.53.53h-1.04l-.52.52h-1.05l-.52.52h-1.57l-.52.52h-1.05l-.52.52h-1.04l-.53.53h-1.04l-.52.52h-1.05l-.52.52h-1.05l-.52.52h-1.57l-.52.53h-1.04l-.53.52h-1.04l-.52.52h-1.05l-.52.52h-1.05l-.52.53h-1.04l-.53.52h-1.56l-.53.52h-1.04l-.52.52h-1.05l-.52.53h-1.05l-.52.52h-1.04l-.53.52h-1.56l-.53.52h-1.04l-.52.53h-1.05l-.52.52h-1.05l-.52.52h-1.04l-.52.52h-1.05l-.52.53h-.52l-.53.52h-.52l-.52.52h-.52l-.53.52h-.52l-.52.53h-.52l-.53.52h-.52l-.52.52h-.52l-.53.52-.52.53h-.52l-.52.52-.53.52h-.52l-.52.52-.52.53-.53.52-.52.52-.52.52-.52.53h-.53l-.52.52-.52.52-.52.52-.53.53-.52.52-.52.52v.52l-.52.53-.53.52-.52.52-.52.52v.53l-.52.52-.53.52v.52l-.52.53-.52.52v.52l-.52.52-.53.53v.52l-.52.52v.52l-.52.53v.52l-.52.52v.52l-.53.53v1.04l-.52.52v.53l-.52.52v1.04l-.52.53v1.56l-.53.53v1.04l-.52.52v2.09l-.52.53v7.31l-.52.52v96.66l.52.52-.52.53V361l.52.53-.52.52v5.75l.52.52-.52.52v8.36l.52.52-.52.53v2.09l.52.52-.52.52v4.18l.52.52-.52.53v1.04l.52.52-.52.53v1.04l.52.52-.52.52v2.62l.52.52-.52.52v1.57l.52.52-.52.52v25.61l.52.52v5.22l.52.53v1.04l.52.52v1.05l.53.52v.52l.52.53v1.04l.52.52.52.53v.52l.53.52v.52l.52.53.52.52.52.52.53.52v.53l.52.52.52.52.52.52h.53l.52.53.52.52.52.52h.53l.52.52.52.53h.52l.53.52h.52l.52.52h.52l.53.52h1.04l.52.53h1.05l.52.52h1.57l.52.52h7.84l.52-.52H297l.52-.52h1.05l.52-.53h1.04l.53-.52h1.56l.53-.52h1.04l.52-.52h1.05l.52-.53h1.05l.52-.52h1.04l.53-.52h1.04l.52-.52h1.57l.52-.53h1.05l.52-.52h1.05l.52-.52h1.04l.53-.52h1.04l.52-.53h1.05l.52-.52h1.57l.52-.52h1.05l.52-.52h1.04l.53-.53h1.04l.52-.52h1.05l.52-.52h1.57l.52-.52h1.05l.52-.53h1.04l.53-.52h1.04l.52-.52h1.05l.52-.52h1.05l.52-.53h1.57l.52-.52h1.04l.53-.52h1.04l.52-.52h1.05l.52-.53h1.05l.52-.52h1.04l.53-.52h1.56l.53-.52h1.04l.52-.53h1.05l.52-.52H355l.52-.52h1.04l.53-.52h1.56l.52-.53h1.05l.52-.52h1.05l.52-.52h1.04l.53-.52h1.04l.52-.53h1.05l.52-.52h1.57l.52-.52h1.05l.52-.52h1.04l.53-.53h1.04l.52-.52h1.05l.52-.52h1.05l.52-.52h1.57l.52-.53h1.04l.53-.52h1.04l.52-.52h1.05l.52-.52h1.05l.52-.53h1.04l.53-.52h1.56l.53-.52H390l.52-.52h1.05l.52-.53h1.05l.52-.52h1.04l.53-.52h1.56l.53-.52h1.04l.52-.53h1.05l.52-.52h1.05l.52-.52h1.04l.53-.52h1.04l.52-.53h1.57l.52-.52h1.05l.52-.52h1.05l.52-.52h1.04l.53-.53h1.04l.52-.52h1.05l.52-.52h1.57l.52-.52h1.05l.52-.53h1.04l.52-.52h1.05l.52-.52h1.05l.52-.52h1.57l.52-.53h1.04l.53-.52h1.04l.52-.52h1.05l.52-.52h1.05l.52-.53h1.04l.53-.52h1.56l.53-.52h1.04l.52-.52h1.05l.52-.53h1.05l.52-.52h1.04l.53-.52h1.04l.52-.52h1.57l.52-.53h1.05l.52-.52H448l.52-.52h1.04l.53-.52h1.04l.52-.53h1.05l.52-.52h1.05l.52-.52h1.04l.53-.52h1.04l.52-.53h.53l.52-.52h.52l.52-.52h.53l.52-.52h.52l.52-.53h.53l.52-.52h.52l.52-.52.53-.52h.52l.52-.53.52-.52.53-.52h.52l.52-.52.52-.52.53-.53h.52l.52-.52.52-.52.53-.52.52-.53.52-.52.52-.52.53-.52.52-.53.52-.52v-.52l.52-.52.53-.53.52-.52v-.52l.52-.52.52-.53v-.52l.53-.52.52-.52v-.53l.52-.52.52-.52v-.52l.53-.53v-.52l.52-.52v-.52l.52-.53v-.52l.52-.52v-1.05l.52-.52v-.52l.53-.52v-1.05l.52-.52v-1.05l.52-.52v-1.57l.52-.52v-2.09l.53-.52v-3.14l.52-.52V185.97l-.52-.52v-2.61l-.53-.52v-1.05l-.52-.52v-1.05l-.52-.52v-.52l-.52-.52v-.53l-.53-.52v-.52l-.52-.52v-.53l-.52-.52-.52-.52-.52-.52v-.53l-.53-.52-.52-.52-.52-.52-.52-.53-.53-.52-.52-.52-.52-.52h-.52l-.53-.53-.52-.52h-.52l-.52-.52-.53-.52h-.52l-.52-.53h-.52l-.53-.52h-1.04l-.52-.52h-1.05l-.52-.52h-1.57l-.52-.53h-8.36Zm.52 287.89-.52.52h-1.57l-.52.52h-1.57l-.52.53h-1.05l-.52.52h-1.05l-.52.52h-1.57l-.52.52h-1.04l-.53.53h-1.04l-.52.52h-1.05l-.52.52h-1.05l-.52.52h-1.04l-.53.53h-1.56l-.53.52h-1.04l-.52.52h-1.05l-.52.52h-1.05l-.52.53h-1.04l-.53.52h-1.04l-.52.52h-1.57l-.52.52h-1.05l-.52.53h-1.05l-.52.52h-1.04l-.53.52h-1.04l-.52.52h-1.05l-.52.53h-1.57l-.52.52h-1.04l-.53.52h-1.04l-.52.52h-1.05l-.52.53h-1.05l-.52.52h-1.57l-.52.52h-1.04l-.53.52h-1.04l-.52.53h-1.05l-.52.52h-1.05l-.52.52h-1.04l-.53.52h-1.56l-.53.53h-1.04l-.52.52h-1.05l-.52.52h-1.05l-.52.52h-1.04l-.53.53h-1.04l-.52.52h-1.57l-.52.52h-1.05l-.52.52h-1.05l-.52.53h-1.04l-.53.52h-1.04l-.52.52h-1.05l-.52.52h-1.57l-.52.53h-1.05l-.52.52h-1.04l-.53.52h-1.04l-.52.52h-1.05l-.52.53h-1.57l-.52.52h-1.05l-.52.52h-1.04l-.53.52h-1.04l-.52.53h-1.05l-.52.52h-1.05l-.52.52h-1.57l-.52.52h-1.04l-.53.53h-1.04l-.52.52h-1.05l-.52.52H355l-.53.52h-1.04l-.52.53h-1.57l-.52.52h-1.05l-.52.52h-1.05l-.52.52h-1.04l-.53.53h-1.04l-.52.52h-1.57l-.52.52h-1.05l-.52.52h-1.05l-.52.53h-1.04l-.53.52h-1.04l-.52.52h-1.05l-.52.52h-1.57l-.52.53h-1.05l-.52.52h-1.04l-.53.52h-1.04l-.52.52h-1.05l-.52.53h-1.05l-.52.52h-1.57l-.52.52h-1.04l-.53.52h-1.04l-.52.53h-1.05l-.52.52h-1.05l-.52.52h-1.04l-.53.52h-1.56l-.53.53h-1.04l-.52.52h-1.05l-.52.52h-1.05l-.52.52h-1.04l-.53.53h-1.56l-.53.52h-1.04l-.52.52h-1.05l-.52.52h-1.05l-.52.53h-1.04l-.53.52H297l-.52.52h-1.05l-.52.52h-1.04l-.53.53h-.52l-.52.52h-.52l-.53.52h-.52l-.52.52h-.52l-.53.53-.52.52h-.52l-.52.52h-.53l-.52.52-.52.53h-.52l-.53.52-.52.52-.52.52h-.52l-.53.53-.52.52-.52.52-.52.52-.53.52-.52.53-.52.52-.52.52-.53.52-.52.53-.52.52-.52.52-.53.52-.52.53v.52l-.52.52-.52.52-.53.53v.52l-.52.52-.52.52v.53l-.52.52v.52l-.53.52-.52.53v.52l-.52.52v.52l-.52.53v1.04l-.53.52v.53l-.52.52v1.04l-.52.53v.52l-.52.52v1.57l-.53.52v1.57l-.52.52v1.57l-.52.52v7.32l-.52.52v100.31l.52.53-.52.52v5.75l.52.52-.52.52v5.75l.52.52-.52.52v2.09l.52.53-.52.52v7.31l.52.53-.52.52v7.84l.52.52-.52.52v2.09l.52.52-.52.53v26.64l.52.52v5.23l.52.52v1.05l.52.52v1.04l.53.53v.52l.52.52v1.05l.52.52.52.52v.52l.53.53v.52l.52.52.52.52.52.53.53.52v.52l.52.52.52.53.52.52h.53l.52.52.52.52.52.53.53.52h.52l.52.52h.52l.53.52h.52l.52.53h.52l.53.52h.52l.52.52h1.05l.52.52h1.57l.52.53h9.4l.53-.53h1.56l.52-.52h1.05l.52-.52h1.05l.52-.52h1.04l.53-.53h1.56l.53-.52h1.04l.52-.52h1.05l.52-.52h1.05l.52-.53h1.04l.53-.52h1.04l.52-.52h1.57l.52-.52h1.05l.52-.53h1.05l.52-.52h1.04l.53-.52h1.04l.52-.52h1.05l.52-.53h1.57l.52-.52h1.05l.52-.52h1.04l.53-.52h1.04l.52-.53h1.05l.52-.52h1.57l.52-.52h1.05l.52-.52h1.04l.53-.53h1.04l.52-.52h1.05l.52-.52h1.05l.52-.52h1.57l.52-.53h1.04l.53-.52h1.04l.52-.52h1.05l.52-.52h1.05l.52-.53h1.04l.53-.52h1.56l.53-.52h1.04l.52-.52h1.05l.52-.53h1.05l.52-.52h1.04l.52-.52h1.05l.52-.52h1.57l.52-.53h1.05l.52-.52h1.04l.53-.52h1.04l.52-.52h1.05l.52-.53h1.57l.52-.52h1.05l.52-.52h1.04l.53-.52h1.04l.52-.53h1.05l.52-.52h1.05l.52-.52h1.57l.52-.52h1.04l.53-.53h1.04l.52-.52h1.05l.52-.52h1.05l.52-.52h1.04l.53-.53h1.56l.53-.52h1.04l.52-.52h1.05l.52-.52h1.05l.52-.53h1.04l.53-.52h1.56l.53-.52h1.04l.52-.52h1.05l.52-.53h1.05l.52-.52h1.04l.53-.52h1.04l.52-.52h1.57l.52-.53h1.05l.52-.52h1.05l.52-.52h1.04l.53-.52h1.04l.52-.53h1.05l.52-.52h1.57l.52-.52h1.04l.53-.52h1.04l.52-.52h1.05l.52-.53h1.05l.52-.52h1.04l.53-.52h1.56l.53-.52h1.04l.52-.53h1.05l.52-.52h1.05l.52-.52h1.04l.53-.52h1.56l.53-.53h1.04l.52-.52h1.05l.52-.52h1.05l.52-.52h1.04l.53-.53h1.04l.52-.52h1.57l.52-.52h1.05l.52-.52h1.05l.52-.53h1.04l.53-.52h1.04l.52-.52h1.05l.52-.52h1.05l.52-.53h.52l.52-.52h1.05l.52-.52h.52l.53-.52h.52l.52-.53h.52l.53-.52.52-.52h.52l.52-.52.53-.53h.52l.52-.52.52-.52h.53l.52-.52.52-.53.52-.52h.53l.52-.52.52-.52.52-.53.53-.52.52-.52.52-.52.52-.53.53-.52.52-.52.52-.52.52-.53v-.52l.53-.52.52-.52.52-.53v-.52l.52-.52.53-.52v-.53l.52-.52.52-.52v-.52l.52-.53v-.52l.53-.52V663l.52-.53v-.52l.52-.52v-.52l.52-.53v-.52l.52-.52v-1.05l.53-.52v-1.04l.52-.53v-1.04l.52-.52v-1.05l.52-.52v-2.09l.53-.52v-3.66l.52-.52V473.86l-.52-.52v-2.09l-.53-.53v-1.56l-.52-.53v-.52l-.52-.52v-1.05l-.52-.52v-.52l-.53-.52v-.53l-.52-.52-.52-.52v-.52l-.52-.53-.52-.52-.53-.52v-.52l-.52-.53-.52-.52-.52-.52-.53-.52h-.52l-.52-.53-.52-.52-.53-.52h-.52l-.52-.52-.52-.53h-.53l-.52-.52h-.52l-.52-.52h-.53l-.52-.52h-1.04l-.53-.53h-1.04l-.52-.52h-1.57l-.52-.52h-7.32Zm272.21-82.55-.52.52H727l-.52.52h-1.57l-.52.53h-1.05l-.52.52h-1.04l-.53.52h-1.04l-.52.52h-1.57l-.52.53h-1.05l-.52.52h-1.05l-.52.52h-1.04l-.53.52h-1.04l-.52.53h-1.05l-.52.52h-1.57l-.52.52h-1.05l-.52.52h-1.04l-.53.53h-1.04l-.52.52h-1.05l-.52.52h-1.05l-.52.52h-1.57l-.52.53h-1.04l-.53.52h-1.04l-.52.52h-1.05l-.52.52h-1.05l-.52.53h-1.04l-.53.52h-1.56l-.53.52h-1.04l-.52.52h-1.05l-.52.53h-1.05l-.52.52h-1.04l-.53.52h-1.56l-.53.52h-1.04l-.52.53h-1.05l-.52.52h-1.05l-.52.52h-1.04l-.53.52h-1.04l-.52.53h-1.57l-.52.52h-1.05l-.52.52h-1.05l-.52.52h-1.04l-.52.52h-1.05l-.52.53h-1.05l-.52.52h-1.57l-.52.52h-1.04l-.53.52h-1.04l-.52.53h-1.05l-.52.52h-1.05l-.52.52h-1.57l-.52.52h-1.04l-.53.53h-1.04l-.52.52h-1.05l-.52.52h-1.05l-.52.52h-1.04l-.53.53h-1.56l-.53.52h-1.04l-.52.52h-1.05l-.52.52h-1.05l-.52.53h-1.04l-.53.52H634l-.52.52h-1.57l-.52.52h-1.05l-.52.53h-1.05l-.52.52h-1.04l-.53.52h-1.04l-.52.52h-1.05l-.52.53h-1.57l-.52.52h-1.05l-.52.52h-1.04l-.53.52h-1.04l-.52.53h-1.05l-.52.52h-1.57l-.52.52h-1.05l-.52.52h-1.04l-.53.53h-1.04l-.52.52h-1.05l-.52.52h-1.05l-.52.52h-1.56l-.53.53h-1.04l-.52.52h-1.05l-.52.52h-1.05l-.52.52h-1.04l-.53.53h-1.04l-.52.52h-1.57l-.52.52h-1.05l-.52.52h-1.05l-.52.53h-1.04l-.53.52h-1.04l-.52.52h-1.05l-.52.52h-1.57l-.52.53h-1.05l-.52.52h-1.04l-.53.52h-1.04l-.52.52h-1.05l-.52.53h-1.57l-.52.52h-1.05l-.52.52h-1.04l-.53.52h-1.04l-.52.53h-1.05l-.52.52h-1.05l-.52.52h-.52l-.52.52h-1.05l-.52.53h-.52l-.53.52h-.52l-.52.52-.52.52h-.53l-.52.53h-.52l-.52.52h-.53l-.52.52-.52.52h-.52l-.53.53-.52.52-.52.52h-.52l-.53.52-.52.53-.52.52-.52.52-.53.52-.52.53-.52.52-.52.52-.53.52-.52.53-.52.52-.52.52-.53.52v.53l-.52.52-.52.52-.52.52v.53l-.53.52-.52.52v.52l-.52.53-.52.52v.52l-.53.52v.53l-.52.52v.52l-.52.52v.53l-.52.52v.52l-.52.52v.53l-.53.52v1.04l-.52.53v1.04l-.52.52v1.05l-.52.52v1.57l-.53.52v2.09l-.52.52v177.65l.52.52v1.56l.53.53v1.04l.52.52v.53l.52.52v.52l.52.52v.53l.53.52v.52l.52.52.52.53v.52l.52.52.52.52.53.53.52.52.52.52v.52l.52.53h.53l.52.52.52.52.52.52h.53l.52.53.52.52h.52l.53.52h.52l.52.52h.52l.53.53h.52l.52.52h1.05l.52.52h1.57l.52.52h9.4l.53-.52h1.56l.53-.52h1.04l.52-.52h1.05l.52-.53h1.57l.52-.52h1.05l.52-.52h1.04l.53-.52h1.04l.52-.53h1.05l.52-.52h1.05l.52-.52h1.57l.52-.52h1.04l.53-.53h1.04l.52-.52h1.05l.52-.52h1.05l.52-.52h1.04l.53-.53h1.56l.53-.52h1.04l.52-.52h1.05l.52-.52h1.05l.52-.53h1.04l.53-.52h1.56l.53-.52h1.04l.52-.52h1.05l.52-.53h1.04l.53-.52h1.04l.52-.52h1.05l.52-.52h1.57l.52-.53h1.05l.52-.52h1.04l.53-.52h1.04l.52-.52h1.05l.52-.53h1.05l.52-.52h1.57l.52-.52h1.04l.53-.52h1.04l.52-.52h1.05l.52-.53h1.05l.52-.52h1.04l.53-.52h1.56l.53-.52h1.04l.52-.53h1.05l.52-.52h1.05l.52-.52h1.04l.53-.52h1.56l.53-.53h1.04l.52-.52h1.05l.52-.52h1.05l.52-.52h1.04l.53-.53h1.04l.52-.52h1.57l.52-.52h1.05l.52-.52h1.05l.52-.53h1.04l.53-.52h1.04l.52-.52h1.05l.52-.52h1.57l.52-.53h1.05l.52-.52h1.04l.53-.52h1.04l.52-.52h1.05l.52-.53H669l.53-.52h1.56l.53-.52h1.04l.52-.52h1.05l.52-.53h1.05l.52-.52h1.04l.53-.52h1.56l.53-.52h1.04l.52-.53h1.05l.52-.52h1.05l.52-.52h1.04l.53-.52h1.04l.52-.53h1.57l.52-.52h1.05l.52-.52h1.05l.52-.52h1.04l.53-.53h1.04l.52-.52h1.05l.52-.52h1.57l.52-.52h1.05l.52-.53h1.04l.53-.52h1.04l.52-.52h1.05l.52-.52h1.57l.52-.53h1.05l.52-.52h1.04l.53-.52h1.04l.52-.52h1.05l.52-.53h1.05l.52-.52h1.57l.52-.52h1.04l.53-.52h1.04l.52-.53h1.05l.52-.52h1.05l.52-.52h1.04l.53-.52H727l.52-.53h1.05l.52-.52h.52l.52-.52h.53l.52-.52h.52l.52-.53h.53l.52-.52h.52l.52-.52h.53l.52-.52h.52l.52-.53.53-.52h.52l.52-.52.52-.52h.53l.52-.53.52-.52.52-.52h.53l.52-.52.52-.53.52-.52.53-.52.52-.52.52-.53.52-.52.53-.52.52-.52.52-.53v-.52l.52-.52.53-.52.52-.53.52-.52v-.52l.52-.52.53-.53v-.52l.52-.52.52-.52v-.53l.52-.52v-.52l.53-.52v-.53l.52-.52v-.52l.52-.52v-.53l.52-.52v-.52l.53-.52v-1.05l.52-.52v-1.05l.52-.52v-1.04l.52-.52v-1.05l.53-.52v-2.09l.52-.52v-3.14l.52-.52V390.78l-.52-.52v-2.09l-.52-.52v-1.04l-.53-.53v-1.04l-.52-.52v-.53l-.52-.52v-.52l-.52-.52v-.53l-.53-.52v-.52l-.52-.52-.52-.53-.52-.52v-.52l-.53-.52-.52-.53-.52-.52-.52-.52-.53-.52-.52-.53h-.52l-.52-.52-.53-.52-.52-.52h-.52l-.52-.53h-.53l-.52-.52h-.52l-.52-.52h-.53l-.52-.52h-.52l-.52-.53h-1.57l-.52-.52h-1.57l-.52-.52h-7.32ZM731.7 82l-.52.52h-3.14l-.52.52h-1.04l-.52.53h-1.57l-.52.52h-1.05l-.52.52h-1.05l-.52.52h-1.04l-.53.53h-1.04l-.52.52h-1.05l-.52.52h-1.57l-.52.52h-1.05l-.52.53h-1.04l-.53.52h-1.04l-.52.52h-1.05l-.52.52h-1.57l-.52.53h-1.05l-.52.52h-1.04l-.53.52h-1.04l-.52.52h-1.05l-.52.53h-1.05l-.52.52h-1.57l-.52.52h-1.04l-.53.52h-1.04l-.52.53h-1.05l-.52.52h-1.05l-.52.52h-1.04l-.53.52h-1.56l-.53.53h-1.04l-.52.52h-1.05l-.52.52h-1.05l-.52.52h-1.04l-.53.53h-1.56l-.53.52h-1.04l-.52.52h-1.05l-.52.52h-1.05l-.52.53h-1.04l-.53.52h-1.04l-.52.52h-1.57l-.52.52h-1.05l-.52.53h-1.04l-.53.52h-1.04l-.52.52h-1.05l-.52.52h-1.05l-.52.53h-1.57l-.52.52h-1.04l-.53.52h-1.04l-.52.52h-1.05l-.52.53h-1.05l-.52.52h-1.04l-.53.52h-1.56l-.53.52h-1.04l-.52.53h-1.05l-.52.52h-1.05l-.52.52h-1.04l-.53.52h-1.56l-.53.53h-1.04l-.52.52h-1.05l-.52.52h-1.05l-.52.52h-1.04l-.53.53h-1.04l-.52.52h-1.57l-.52.52h-1.05l-.52.52h-1.05l-.52.53h-1.04l-.53.52h-1.04l-.52.52h-1.05l-.52.52h-1.57l-.52.53h-1.05l-.52.52h-1.04l-.53.52h-1.04l-.52.52h-1.05l-.52.53h-1.05l-.52.52h-1.57l-.52.52h-1.04l-.53.52h-1.04l-.52.53h-1.05l-.52.52h-1.04l-.53.52h-1.56l-.53.52h-1.04l-.52.53h-1.05l-.52.52h-1.05l-.52.52h-1.04l-.53.52h-1.04l-.52.53h-1.57l-.52.52h-1.05l-.52.52h-1.05l-.52.52h-1.04l-.53.53h-1.04l-.52.52h-1.05l-.52.52h-1.57l-.52.52h-1.05l-.52.53h-1.04l-.53.52h-1.04l-.52.52h-1.05l-.52.52h-1.57l-.52.53h-1.05l-.52.52h-1.04l-.53.52h-1.04l-.52.52h-1.05l-.52.53h-.52l-.53.52h-.52l-.52.52h-.52l-.53.52h-.52l-.52.53h-.52l-.53.52h-.52l-.52.52-.52.52h-.53l-.52.53h-.52l-.52.52-.53.52-.52.52h-.52l-.52.53-.53.52-.52.52-.52.52-.52.53-.53.52-.52.52h-.52l-.52.52v.52l-.53.53-.52.52-.52.52-.52.52-.53.53-.52.52v.52l-.52.52-.52.53-.53.52v.52l-.52.52-.52.53v.52l-.52.52v.52l-.53.53-.52.52v.52l-.52.52v1.05l-.52.52v.52l-.52.53v.52l-.53.52v1.05l-.52.52v1.04l-.52.53v1.04l-.52.52v1.57l-.53.52v2.09l-.52.53v177.64l.52.52v1.57l.53.52v1.05l.52.52v.52l.52.52v.53l.52.52v.52l.53.52.52.53v.52l.52.52.52.52v.53l.52.52.53.52.52.52.52.53.52.52.53.52.52.52.52.53.52.52h.53l.52.52.52.52h.52l.53.53h.52l.52.52h.52l.53.52h1.04l.52.52h1.05l.52.53h1.57l.52.52h7.32l.52-.52h2.09l.52-.53h1.57l.52-.52h1.05l.52-.52h1.04l.53-.52h1.04l.52-.53h1.05l.52-.52h1.57l.52-.52h1.05l.52-.52h1.04l.53-.53h1.04l.52-.52h1.05l.52-.52h1.05l.52-.52h1.57l.52-.53h1.04l.53-.52h1.04l.52-.52h1.05l.52-.52h1.05l.52-.53h1.57l.52-.52h1.04l.53-.52h1.04l.52-.52h1.05l.52-.53h1.05l.52-.52h1.04l.52-.52h1.57l.52-.52h1.05l.52-.53h1.05l.52-.52h1.04l.53-.52h1.04l.52-.52h1.57l.52-.53h1.05l.52-.52h1.05l.52-.52h1.04l.53-.52h1.04l.52-.53h1.05l.52-.52h1.57l.52-.52h1.05l.52-.52h1.04l.53-.53h1.04l.52-.52h1.05l.52-.52H634l.52-.52h1.05l.52-.53h1.04l.53-.52h1.04l.52-.52h1.05l.52-.52h1.05l.52-.53h1.57l.52-.52h1.04l.53-.52h1.04l.52-.52h1.05l.52-.53h1.05l.52-.52h1.57l.52-.52h1.04l.53-.52h1.04l.52-.53h1.05l.52-.52h1.05l.52-.52h1.04l.53-.52h1.56l.53-.53h1.04l.52-.52h1.05l.52-.52h1.04l.53-.52h1.04l.52-.53h1.57l.52-.52h1.05l.52-.52h1.05l.52-.52h1.04l.53-.53h1.04l.52-.52h1.57l.52-.52h1.05l.52-.52h1.05l.52-.52h1.04l.53-.53h1.04l.52-.52h1.05l.52-.52h1.57l.52-.52h1.05l.52-.53h1.04l.53-.52h1.04l.52-.52h1.05l.52-.52h1.57l.52-.53h1.05l.52-.52h1.04l.53-.52h1.04l.52-.52h1.05l.52-.53h1.05l.52-.52h1.57l.52-.52h1.04l.53-.52h1.04l.52-.53h1.05l.52-.52h1.05l.52-.52h1.57l.52-.52h1.04l.53-.53h1.04l.52-.52h1.05l.52-.52h1.05l.52-.52h1.04l.53-.53h1.56l.53-.52h.52l.52-.52h1.04l.53-.52h.52l.52-.53h1.05l.52-.52h.52l.52-.52h.53l.52-.52h.52l.52-.53h.53l.52-.52.52-.52h.52l.53-.52.52-.53h.52l.52-.52.53-.52h.52l.52-.52.52-.53.53-.52.52-.52.52-.52h.52l.53-.53.52-.52.52-.52.52-.52.53-.53.52-.52v-.52l.52-.52.52-.53.53-.52.52-.52v-.52l.52-.53.52-.52v-.52l.53-.52.52-.53v-.52l.52-.52.52-.52v-.53l.53-.52v-.52l.52-.52v-.53l.52-.52v-.52l.52-.52v-.53l.53-.52v-1.04l.52-.53v-1.04l.52-.52v-1.05l.52-.52v-1.05l.53-.52v-2.09l.52-.52v-3.14l.52-.52V102.9l-.52-.52v-2.09l-.52-.53V98.2l-.53-.53v-.52l-.52-.52v-1.05l-.52-.52v-.52l-.52-.52-.53-.53v-.52l-.52-.52v-.52l-.52-.53-.52-.52-.53-.52-.52-.52-.52-.53-.52-.52-.53-.52-.52-.52-.52-.53-.52-.52h-.53l-.52-.52-.52-.52h-.52l-.53-.53h-.52l-.52-.52h-.52l-.53-.52h-.52l-.52-.52h-1.05l-.52-.53h-1.04l-.53-.52h-3.65l-.53-.52h-2.09ZM457.92 740.85l-.52.52h-2.09l-.52.52h-1.05l-.52.52h-1.57l-.52.53h-1.04l-.53.52h-1.04l-.52.52h-1.05l-.52.52h-1.05l-.52.53h-1.04l-.53.52h-1.56l-.53.52h-1.04l-.52.52h-1.05l-.52.53h-1.05l-.52.52h-1.04l-.53.52h-1.04l-.52.52h-1.57l-.52.53h-1.05l-.52.52h-1.05l-.52.52h-1.04l-.53.52h-1.04l-.52.53h-1.57l-.52.52h-1.05l-.52.52h-1.05l-.52.52h-1.04l-.52.53h-1.05l-.52.52h-1.05l-.52.52h-1.57l-.52.52h-1.04l-.53.53h-1.04l-.52.52h-1.05l-.52.52h-1.05l-.52.52h-1.04l-.53.53h-1.56l-.53.52h-1.04l-.52.52h-1.05l-.52.52h-1.05l-.52.52h-1.04l-.53.53h-1.56l-.53.52h-1.04l-.52.52h-1.05l-.52.52h-1.05l-.52.53h-1.04l-.53.52h-1.04l-.52.52h-1.57l-.52.52h-1.05l-.52.53h-1.05l-.52.52h-1.04l-.53.52h-1.04l-.52.52h-1.05l-.52.53h-1.57l-.52.52h-1.05l-.52.52h-1.04l-.53.52h-1.04l-.52.53h-1.05l-.52.52h-1.05l-.52.52h-1.57l-.52.52h-1.04l-.53.53h-1.04l-.52.52h-1.05l-.52.52h-1.05l-.52.52h-1.56l-.53.53h-1.04l-.52.52h-1.05l-.52.52h-1.05l-.52.52h-1.04l-.53.53h-1.04l-.52.52h-1.57l-.52.52h-1.05l-.52.52h-1.05l-.52.53h-1.04l-.53.52h-1.04l-.52.52h-1.05l-.52.52h-1.57l-.52.53h-1.05l-.52.52h-1.04l-.53.52h-1.04l-.52.52h-1.05l-.52.53h-1.57l-.52.52h-1.05l-.52.52h-1.04l-.53.52h-1.04l-.52.53h-1.05l-.52.52h-1.05l-.52.52h-1.57l-.52.52h-1.04l-.53.53h-1.04l-.52.52h-1.05l-.52.52h-1.05l-.52.52h-1.04l-.53.53h-1.56l-.53.52h-1.04l-.52.52h-1.05l-.52.52h-1.05l-.52.53h-1.04l-.53.52h-1.04l-.52.52h-1.57l-.52.52h-1.05l-.52.53h-1.04l-.53.52h-1.04l-.52.52h-.53l-.52.52h-.52l-.52.53h-.53l-.52.52h-.52l-.52.52-.53.52h-.52l-.52.53h-.52l-.53.52h-.52l-.52.52-.52.52h-.53l-.52.53-.52.52-.52.52-.53.52h-.52l-.52.53-.52.52-.53.52-.52.52-.52.53-.52.52-.53.52-.52.52-.52.53-.52.52v.52l-.53.52-.52.53-.52.52v.52l-.52.52-.53.53-.52.52v.52l-.52.52-.52.53v.52l-.53.52v.52l-.52.53v.52l-.52.52v.52l-.52.53v.52l-.53.52v.52l-.52.53v1.04l-.52.52v1.05l-.52.52v1.04l-.53.53v1.56l-.52.53v2.09l-.52.52v7.31l-.52.53v18.28l.52.53-.52.52v5.75l.52.52-.52.52v5.75l.52.52-.52.52v2.09l.52.53-.52.52v7.31l.52.53-.52.52v7.83l.52.53-.52.52v2.09l.52.52-.52.52v26.65l.52.52v5.23l.52.52v1.57l.52.52v.52l.53.53v1.04l.52.52v.53l.52.52v.52l.52.52.53.53v.52l.52.52.52.52.52.53v.52l.53.52.52.52.52.53.52.52.53.52.52.52h.52l.52.53.53.52h.52l.52.52.52.52h.53l.52.53h.52l.52.52h1.05l.52.52h.52l.53.52h1.56l.53.53h2.09l.52.52h3.66l.52-.52h3.13l.53-.53h1.56l.52-.52h1.05l.52-.52h1.05l.52-.52h1.04l.53-.53h1.56l.53-.52h1.04l.52-.52h1.05l.52-.52h1.05l.52-.53h1.04l.53-.52h1.04l.52-.52h1.57l.52-.52h1.05l.52-.53h1.05l.52-.52h1.04l.53-.52h1.04l.52-.52h1.05l.52-.53h1.57l.52-.52h1.05l.52-.52h1.04l.53-.52h1.04l.52-.53h1.05l.52-.52h1.57l.52-.52h1.05l.52-.52h1.04l.53-.53h1.04l.52-.52h1.05l.52-.52h1.05l.52-.52h1.57l.52-.53h1.04l.53-.52h1.04l.52-.52h1.05l.52-.52h1.05l.52-.53h1.04l.53-.52h1.56l.53-.52h1.04l.52-.52h1.05l.52-.53h1.05l.52-.52h1.04l.52-.52h1.05l.52-.52h1.57l.52-.53h1.05l.52-.52h1.04l.53-.52h1.04l.52-.52h1.05l.52-.53h1.57l.52-.52h1.05l.52-.52h1.04l.53-.52h1.04l.52-.53h1.05l.52-.52h1.05l.52-.52h1.57l.52-.52h1.04l.53-.53h1.04l.52-.52h1.05l.52-.52h1.05l.52-.52h1.04l.53-.53h1.56l.53-.52h1.04l.52-.52h1.05l.52-.52h1.05l.52-.53h1.04l.53-.52h1.56l.53-.52h1.04l.52-.52h1.05l.52-.53h1.05l.52-.52h1.04l.53-.52h1.04l.52-.52h1.57l.52-.53h1.05l.52-.52h1.05l.52-.52h1.04l.53-.52h1.04l.52-.53h1.05l.52-.52h1.57l.52-.52h1.04l.53-.52h1.04l.52-.53h1.05l.52-.52h1.05l.52-.52h1.04l.53-.52h1.56l.53-.53h1.04l.52-.52h1.05l.52-.52h1.05l.52-.52h1.04l.53-.53h1.56l.53-.52h1.04l.52-.52h1.05l.52-.52h1.05l.52-.53h1.04l.53-.52h1.04l.52-.52h1.57l.52-.52h1.05l.52-.53h1.05l.52-.52h1.04l.53-.52h1.04l.52-.52h1.05l.52-.53h1.05l.52-.52h.52l.52-.52h1.05l.52-.52h.52l.53-.53h.52l.52-.52h.52l.53-.52.52-.52h.52l.52-.53.53-.52h.52l.52-.52.52-.52h.53l.52-.53.52-.52.52-.52h.53l.52-.52.52-.53.52-.52.53-.52.52-.52.52-.52.52-.53.53-.52.52-.52.52-.52.52-.53v-.52l.53-.52.52-.52.52-.53v-.52l.52-.52.53-.52v-.53l.52-.52.52-.52v-.52l.52-.53v-.52l.53-.52v-.52l.52-.53v-.52l.52-.52v-.52l.52-.53v-.52l.52-.52v-1.05l.53-.52v-1.04l.52-.53v-1.04l.52-.52v-1.05l.52-.52v-2.09l.53-.52v-3.66l.52-.52v-90.39l-.52-.53v-2.61l-.53-.52v-1.04l-.52-.53V756l-.52-.52v-1.05l-.52-.52v-.52l-.53-.53-.52-.52v-.52l-.52-.52v-.53l-.52-.52-.52-.52-.53-.52-.52-.53-.52-.52-.52-.52-.53-.52-.52-.53-.52-.52-.52-.52-.53-.52h-.52l-.52-.53h-.52l-.53-.52-.52-.52h-.52l-.52-.52h-1.05l-.52-.53h-.52l-.53-.52h-1.56l-.53-.52h-2.09l-.52-.52h-5.22Z" fill="#12101d"/></svg>